 HEAD
<svg aria-hidden="true" style="position: absolute; width: 0; height: 0; overflow: hidden;" version="1.1"
    xmlns="http://www.w3.org/2000/svg" xmlns:xlink="http://www.w3.org/1999/xlink">
    <defs>
        <symbol id="icon-hourglass" viewBox="0 0 32 32">
            <path stroke-linejoin="round" stroke-linecap="round" stroke-miterlimit="4" stroke-width="2.6667"
                d="M24.217 2.667h-16.434c-0.617 0-1.117 0.5-1.117 1.117 0 3.554 1.412 6.962 3.925 9.475l1.626 1.626c0.161 0.161 0.242 0.242 0.3 0.32 0.352 0.473 0.352 1.121 0 1.594-0.058 0.077-0.139 0.158-0.3 0.32l-1.626 1.626c-2.513 2.513-3.925 5.921-3.925 9.475 0 0.617 0.5 1.117 1.117 1.117h16.434c0.617 0 1.117-0.5 1.117-1.117 0-3.554-1.412-6.962-3.925-9.475l-1.626-1.626c-0.161-0.161-0.242-0.242-0.3-0.32-0.353-0.473-0.353-1.121 0-1.594 0.058-0.077 0.139-0.158 0.3-0.32l1.626-1.626c2.513-2.513 3.925-5.921 3.925-9.475 0-0.617-0.5-1.117-1.117-1.117z">
            </path>
        </symbol>
        <symbol id="icon-brush" viewBox="0 0 32 32">
            <path stroke-linejoin="round" stroke-linecap="round" stroke-miterlimit="4" stroke-width="2.6667"
                d="M17.037 20l-5.037-5.037"></path>
            <path stroke-linejoin="round" stroke-linecap="round" stroke-miterlimit="4" stroke-width="2.6667"
                d="M2.667 29.333c2.667 0 6.144 0.456 7.966-1.367s1.822-4.777 0-6.6c-1.822-1.822-4.777-1.822-6.6 0s0 5.3-1.367 7.967z">
            </path>
            <path stroke-linejoin="round" stroke-linecap="round" stroke-miterlimit="4" stroke-width="2.6667"
                d="M10.667 21.333c-0.655-0.655-0.983-0.983-1.168-1.326-0.444-0.823-0.425-1.818 0.050-2.623 0.198-0.336 0.538-0.651 1.218-1.28l13.157-12.183c1.159-1.073 2.959-1.038 4.075 0.078s1.151 2.917 0.078 4.075l-12.183 13.157c-0.63 0.68-0.944 1.020-1.28 1.218-0.805 0.475-1.8 0.495-2.623 0.050-0.343-0.185-0.671-0.513-1.326-1.168z">
            </path>
        </symbol>
        <symbol id="icon-message-chat" viewBox="0 0 32 32">
            <path stroke-linejoin="round" stroke-linecap="round" stroke-miterlimit="4" stroke-width="2.6667"
                d="M8.126 14.972c-0.083-0.534-0.126-1.081-0.126-1.638 0-5.891 4.807-10.667 10.737-10.667s10.737 4.776 10.737 10.667c0 1.331-0.245 2.605-0.693 3.779-0.093 0.244-0.14 0.366-0.161 0.461s-0.029 0.161-0.031 0.257c-0.002 0.097 0.011 0.205 0.037 0.42l0.537 4.36c0.058 0.472 0.087 0.708 0.009 0.88-0.069 0.15-0.191 0.27-0.343 0.335-0.173 0.075-0.409 0.040-0.879-0.029l-4.247-0.623c-0.222-0.033-0.333-0.049-0.434-0.048-0.1 0.001-0.169 0.008-0.267 0.028s-0.225 0.068-0.477 0.163c-1.178 0.441-2.454 0.683-3.787 0.683-0.558 0-1.105-0.042-1.64-0.124M10.175 29.333c3.953 0 7.158-3.283 7.158-7.333s-3.205-7.333-7.158-7.333c-3.953 0-7.158 3.283-7.158 7.333 0 0.814 0.13 1.597 0.369 2.329 0.101 0.309 0.152 0.464 0.168 0.57 0.017 0.11 0.020 0.172 0.014 0.284-0.006 0.107-0.033 0.227-0.086 0.469l-0.815 3.682 3.993-0.545c0.218-0.030 0.327-0.045 0.422-0.044 0.1 0.001 0.153 0.006 0.252 0.026 0.093 0.019 0.232 0.067 0.51 0.165 0.731 0.258 1.516 0.398 2.332 0.398z">
            </path>
        </symbol>
        <symbol id="icon-user" viewBox="0 0 32 32">
            <path stroke-linejoin="round" stroke-linecap="round" stroke-miterlimit="4" stroke-width="2.6667"
                d="M26.667 28c0-1.861 0-2.791-0.23-3.548-0.517-1.705-1.851-3.039-3.556-3.556-0.757-0.23-1.687-0.23-3.548-0.23h-6.667c-1.861 0-2.791 0-3.548 0.23-1.705 0.517-3.038 1.851-3.556 3.556-0.23 0.757-0.23 1.687-0.23 3.548">
            </path>
            <path stroke-linejoin="round" stroke-linecap="round" stroke-miterlimit="4" stroke-width="2.6667"
                d="M16 16c3.314 0 6-2.686 6-6s-2.686-6-6-6c-3.314 0-6 2.686-6 6s2.686 6 6 6z"></path>
        </symbol>
        <symbol id="icon-arrow-down" viewBox="0 0 32 32">
            <path fill="none" stroke-linejoin="miter" stroke-linecap="butt" stroke-miterlimit="4" stroke-width="3.2"
                d="M24 12l-8 8-8-8"></path>
        </symbol>
        <symbol id="icon-arrow-narrow-right" viewBox="0 0 32 32">
            <path stroke-linejoin="round" stroke-linecap="round" stroke-miterlimit="4" stroke-width="2"
                d="M5.333 16h21.333"></path>
            <path stroke-linejoin="round" stroke-linecap="round" stroke-miterlimit="4" stroke-width="2"
                d="M18.667 8l8 8-8 8"></path>
        </symbol>
        <symbol id="icon-menu-burger" viewBox="0 0 32 32">
            <path stroke-linejoin="round" stroke-linecap="round" stroke-miterlimit="4" stroke-width="2.2857"
                d="M4 11.333h24M4 20.667h24"></path>
        </symbol>
        <symbol id="icon-close-x" viewBox="0 0 32 32">
            <path stroke-linejoin="round" stroke-linecap="round" stroke-miterlimit="4" stroke-width="2.2857"
                d="M24 8l-16 16"></path>
            <path stroke-linejoin="round" stroke-linecap="round" stroke-miterlimit="4" stroke-width="2.2857"
                d="M8 8l16 16"></path>

<svg xmlns="http://www.w3.org/2000/svg" aria-hidden="true" style="position:absolute;width:0;height:0;overflow:hidden">
    <defs>
        <symbol id="icon-arrow-narrow-right" viewBox="0 0 32 32">
            <path stroke-linecap="round" stroke-linejoin="round" stroke-width="1.6"
                d="M5.333 16h21.333M18.667 8l8 8-8 8" />
        </symbol>
        <symbol id="icon-Icon" viewBox="0 0 33 32">
            <path fill="none" stroke="#fafafa" stroke-linecap="round" stroke-linejoin="round" stroke-width="2.909"
                d="M7.41 14.878a11.71 11.71 0 0 1-.137-1.787c0-6.427 5.244-11.636 11.713-11.636s11.713 5.21 11.713 11.636a11.54 11.54 0 0 1-.756 4.123c-.102.266-.152.399-.175.503s-.032.175-.034.281c-.002.106.012.224.041.458l.585 4.757c.063.515.095.772.009.96a.73.73 0 0 1-.374.366c-.189.081-.446.044-.959-.032l-4.633-.679c-.242-.035-.363-.053-.473-.052a1.357 1.357 0 0 0-.291.031 4.298 4.298 0 0 0-.521.177 11.855 11.855 0 0 1-5.92.61m-7.552 5.951c4.313 0 7.809-3.582 7.809-8s-3.496-8-7.809-8c-4.313 0-7.809 3.582-7.809 8 0 .888.141 1.742.402 2.541.11.337.165.506.183.621.019.12.022.188.015.31a3.636 3.636 0 0 1-.094.511l-.889 4.017 4.356-.595c.238-.032.357-.049.46-.048.109.001.167.007.275.028.102.02.253.074.556.18a7.645 7.645 0 0 0 2.544.434z"
                style="stroke:var(--color1, #fafafa)" />
        </symbol>
        <symbol id="icon-user-01" viewBox="0 0 32 32">
            <path fill="none" stroke="#fafafa" stroke-linecap="round" stroke-linejoin="round" stroke-width="2.667"
                d="M26.667 28c0-1.861 0-2.791-.23-3.548a5.333 5.333 0 0 0-3.556-3.556c-.757-.23-1.687-.23-3.548-.23h-6.667c-1.861 0-2.791 0-3.548.23a5.335 5.335 0 0 0-3.556 3.556c-.23.757-.23 1.687-.23 3.548M16 16a6 6 0 1 0 0-12 6 6 0 0 0 0 12z"
                style="stroke:var(--color1, #fafafa)" />
        </symbol>
        <symbol id="icon-brush-01" viewBox="0 0 32 32">
            <path fill="none" stroke="#fafafa" stroke-linecap="round" stroke-linejoin="round" stroke-width="2.667"
                d="M17.037 20 12 14.963M2.667 29.333c2.667 0 6.144.456 7.966-1.367a4.668 4.668 0 0 0-6.6-6.6c-1.823 1.823 0 5.3-1.367 7.966z"
                style="stroke:var(--color1, #fafafa)" />
            <path fill="none" stroke="#fafafa" stroke-linecap="round" stroke-linejoin="round" stroke-width="2.667"
                d="M10.667 21.333c-.655-.655-.983-.983-1.168-1.326a2.668 2.668 0 0 1 .05-2.623c.198-.336.538-.651 1.218-1.28L23.924 3.921a2.94 2.94 0 0 1 4.153 4.153L15.894 21.231c-.63.68-.944 1.02-1.28 1.218-.805.475-1.8.495-2.623.051-.343-.185-.671-.513-1.326-1.168z"
                style="stroke:var(--color1, #fafafa)" />
        </symbol>
        <symbol id="icon-hourglass-02" viewBox="0 0 32 32">
            <path fill="none" stroke="#fafafa" stroke-linecap="round" stroke-linejoin="round" stroke-width="2.667"
                d="M24.217 2.667H7.783c-.617 0-1.117.5-1.117 1.117a13.4 13.4 0 0 0 3.925 9.475l1.626 1.626c.161.161.242.242.3.32a1.335 1.335 0 0 1 0 1.594c-.058.077-.139.158-.3.32l-1.626 1.626a13.4 13.4 0 0 0-3.925 9.475c0 .617.5 1.117 1.117 1.117h16.434c.617 0 1.117-.5 1.117-1.117a13.4 13.4 0 0 0-3.925-9.475l-1.626-1.626c-.161-.161-.242-.242-.3-.32a1.332 1.332 0 0 1 0-1.594c.058-.077.139-.158.3-.32l1.626-1.626a13.4 13.4 0 0 0 3.925-9.475c0-.617-.5-1.117-1.117-1.117z"
                style="stroke:var(--color1, #fafafa)" />
        </symbol>
        <symbol id="icon-jefferson" viewBox="0 0 141 32">
            <path fill="#fafafa"
                d="m133.416 15.158.234-4.936-4.313 2.685L128 10.688l4.58-2.251L128 6.186l1.337-2.251 4.313 2.685-.234-4.936h2.641l-.234 4.936 4.313-2.685 1.337 2.251-4.58 2.251 4.58 2.251-1.337 2.219-4.313-2.685.234 4.936h-2.641zM112.987 14.412v10.851h-3.513V6.966h3.415v3.011h.244a5.09 5.09 0 0 1 1.936-2.357c.878-.589 2.006-.884 3.383-.884 1.236 0 2.315.262 3.236.786.933.513 1.654 1.282 2.163 2.308.52 1.026.781 2.297.781 3.813v11.62h-3.513V14.069c0-1.32-.347-2.357-1.041-3.11-.694-.764-1.637-1.146-2.83-1.146-.813 0-1.545.185-2.196.556-.64.36-1.144.878-1.512 1.555s-.553 1.506-.553 2.488zM99.36 25.263c-1.69 0-3.17-.385-4.441-1.155-1.26-.77-2.239-1.85-2.939-3.24-.689-1.39-1.033-3.005-1.033-4.844 0-1.861.344-3.486 1.033-4.876.7-1.401 1.679-2.486 2.939-3.256 1.27-.77 2.75-1.155 4.441-1.155 1.701 0 3.181.385 4.441 1.155s2.239 1.855 2.939 3.256c.7 1.39 1.05 3.016 1.05 4.876 0 1.839-.35 3.454-1.05 4.844s-1.679 2.47-2.939 3.24c-1.259.77-2.74 1.155-4.441 1.155zm0-2.935c1.109 0 2.024-.289 2.745-.866s1.254-1.342 1.599-2.294c.355-.963.533-2.01.533-3.144 0-1.155-.178-2.214-.533-3.176-.344-.962-.877-1.732-1.599-2.31s-1.636-.866-2.745-.866c-1.098 0-2.008.289-2.729.866-.711.577-1.243 1.347-1.599 2.31s-.533 2.021-.533 3.176c0 1.134.178 2.181.533 3.144.355.952.888 1.716 1.599 2.294.721.577 1.631.866 2.729.866zM88.896 11.356l-3.289.545c-.212-.599-.606-1.15-1.185-1.652-.568-.503-1.419-.754-2.554-.754-1.024 0-1.881.225-2.571.674-.679.438-1.018 1-1.018 1.684 0 .599.228 1.085.684 1.46.467.374 1.207.674 2.22.898l2.988.642c1.703.374 2.977.962 3.823 1.764s1.269 1.829 1.269 3.08c0 1.08-.323 2.042-.968 2.887-.645.834-1.541 1.492-2.688 1.973-1.146.47-2.471.706-3.973.706-2.092 0-3.795-.433-5.108-1.299s-2.12-2.085-2.421-3.657l3.489-.513c.222.877.673 1.54 1.352 1.989.69.449 1.58.674 2.671.674 1.18 0 2.126-.241 2.838-.722.723-.481 1.085-1.064 1.085-1.748 0-1.133-.879-1.898-2.637-2.294l-3.155-.674c-1.747-.385-3.038-.989-3.873-1.813-.824-.834-1.235-1.882-1.235-3.144 0-1.059.306-1.989.918-2.791.623-.802 1.475-1.422 2.554-1.861 1.091-.449 2.331-.674 3.723-.674 2.026 0 3.611.422 4.758 1.267a5.984 5.984 0 0 1 2.304 3.352zM64 25.263V6.998h3.538v2.924h.203c.35-.98.959-1.754 1.828-2.32.88-.577 1.873-.866 2.979-.866.226 0 .491.011.795.033.316.011.57.027.762.049v3.398c-.147-.044-.412-.087-.796-.131a9.647 9.647 0 0 0-1.134-.065c-.869 0-1.648.18-2.336.539a4.08 4.08 0 0 0-1.608 1.454c-.384.61-.576 1.318-.576 2.124v11.126h-3.656zM54.344 25.263c-1.82 0-3.395-.38-4.726-1.139s-2.358-1.829-3.079-3.208c-.71-1.39-1.065-3.01-1.065-4.86 0-1.839.349-3.459 1.048-4.86.71-1.401 1.703-2.492 2.979-3.272 1.287-.791 2.796-1.187 4.527-1.187 1.054 0 2.075.166 3.062.497s1.875.855 2.663 1.572c.788.716 1.409 1.647 1.864 2.791.466 1.144.699 2.524.699 4.138v1.251H47.521v-2.615h12.931l-1.681.866c0-1.101-.178-2.075-.533-2.919s-.888-1.502-1.598-1.973c-.699-.481-1.57-.722-2.613-.722s-1.936.241-2.68.722c-.732.481-1.292 1.117-1.681 1.909s-.582 1.657-.582 2.598v1.78c0 1.23.222 2.272.666 3.128s1.06 1.508 1.847 1.957c.799.449 1.725.674 2.779.674.688 0 1.309-.096 1.864-.289.566-.192 1.054-.481 1.464-.866s.721-.861.932-1.428l3.428.626c-.277.963-.766 1.807-1.465 2.534s-1.581 1.294-2.646 1.7c-1.054.396-2.258.594-3.611.594zM46.213 7.158v2.834H35.369V7.158h10.844zm-7.889 18.105V5.052c0-1.123.264-2.057.791-2.802A4.87 4.87 0 0 1 41.212.566a6.957 6.957 0 0 1 2.801-.567c.767 0 1.421.059 1.959.178s.934.221 1.186.308l-.894 2.85a10.008 10.008 0 0 0-.67-.178 4.259 4.259 0 0 0-.997-.097c-.905 0-1.558.216-1.959.648-.401.421-.601 1.036-.601 1.846v19.709h-3.712z"
                style="fill:var(--color1, #fafafa)" />
            <path fill="#fafafa"
                d="M36.107 7.158v2.834H25.263V7.158h10.844zm-7.888 18.105V5.052c0-1.123.264-2.057.791-2.802A4.87 4.87 0 0 1 31.107.566a6.957 6.957 0 0 1 2.801-.567c.767 0 1.421.059 1.959.178s.934.221 1.186.308l-.894 2.85a10.008 10.008 0 0 0-.67-.178 4.259 4.259 0 0 0-.997-.097c-.905 0-1.558.216-1.959.648-.401.421-.601 1.036-.601 1.846v19.709H28.22zM17.291 25.263c-1.82 0-3.395-.38-4.726-1.139s-2.358-1.829-3.079-3.208c-.71-1.39-1.065-3.01-1.065-4.86 0-1.839.35-3.459 1.048-4.86.71-1.401 1.703-2.492 2.979-3.272 1.287-.791 2.796-1.187 4.527-1.187 1.054 0 2.075.166 3.062.497s1.875.855 2.663 1.572c.788.716 1.409 1.647 1.864 2.791.466 1.144.699 2.524.699 4.138v1.251H10.468v-2.615h12.931l-1.681.866c0-1.101-.178-2.075-.533-2.919s-.888-1.502-1.598-1.973c-.699-.481-1.57-.722-2.613-.722s-1.936.241-2.68.722c-.732.481-1.293 1.117-1.681 1.909s-.582 1.657-.582 2.598v1.78c0 1.23.222 2.272.666 3.128s1.06 1.508 1.847 1.957c.799.449 1.725.674 2.779.674.688 0 1.309-.096 1.864-.289.566-.192 1.054-.481 1.464-.866s.721-.861.932-1.428l3.428.626c-.277.963-.766 1.807-1.465 2.534s-1.581 1.294-2.646 1.7c-1.054.396-2.258.594-3.611.594zM2.878 7.012h3.416v19.376c.011 1.215-.2 2.24-.633 3.075s-1.065 1.464-1.898 1.887c-.833.434-1.856.651-3.068.651h-.696v-3.042h.553c.822 0 1.413-.222 1.771-.667s.543-1.085.554-1.92V7.012zM4.57 4.214c-.601 0-1.112-.206-1.534-.618s-.633-.906-.633-1.48c0-.586.211-1.085.633-1.497S3.969.001 4.57.001c.59 0 1.096.206 1.518.618.432.412.648.911.648 1.497 0 .575-.216 1.068-.648 1.48a2.096 2.096 0 0 1-1.518.618z"
                style="fill:var(--color1, #fafafa)" />
        </symbol>
        <symbol id="icon-close-menu" viewBox="0 0 32 32">
            <path fill="none" stroke="#fafafa" stroke-linecap="round" stroke-linejoin="round" stroke-width="2.286"
                d="M24 8 8 24M8 8l16 16" style="stroke:var(--color1, #fafafa)" />
        </symbol>
        <symbol id="icon-burger-menu" viewBox="0 0 67 32">
            <path fill="none" stroke="#fafafa" stroke-linecap="round" stroke-linejoin="round" stroke-width="5.818"
                d="M2.909 2.909H64M2.909 29.091H64" style="stroke:var(--color1, #fafafa)" />
        </symbol>
        <symbol id="arrow-down" viewBox="0 0 20 20">
            <!--Стрілочка вниз-->
            <path d="M15 7.5L10 12.5L5 7.5" stroke="#FAFAFA" stroke-width="2" />
        </symbol>
        <symbol id="arrow-up" viewBox="0 0 20 20">
            <!--Стрілочка вверх-->
            <path d="M15 12.5L10 7.5L5 12.5" stroke="#FAFAFA" stroke-width="2" />
        </symbol>
        <symbol id="icon-x" viewBox="0 0 32 32">
            <path fill="none" stroke="#fafafa" style="stroke: var(--color1, #fafafa)" stroke-linejoin="round"
                stroke-linecap="round" stroke-miterlimit="4" stroke-width="2.6667" d="M24 8l-16 16"></path>
            <path fill="none" stroke="#fafafa" style="stroke: var(--color1, #fafafa)" stroke-linejoin="round"
                stroke-linecap="round" stroke-miterlimit="4" stroke-width="2.6667" d="M8 8l16 16"></path>
        </symbol>
        <symbol id="proj-right" viewBox="0 0 33 32">
            <path stroke-linecap="round" stroke-linejoin="round" stroke-width="2.6667" d="M6 16h21.333m-8-8 8 8-8 8" />
        </symbol>
        <symbol id="proj-left" viewBox="0 0 33 32">
            <path stroke-linecap="round" stroke-linejoin="round" stroke-width="2.6667" d="M27.333 16H6m8 8-8-8 8-8" />

        </symbol>
    </defs>
</svg>